<svg width="48" height="48" viewBox="0 0 48 48" fill="none" xmlns="http://www.w3.org/2000/svg">
<path d="M38.3438 16.2422C39.3594 16.7578 40.2734 17.3906 41.0859 18.1406C41.8984 18.8906 42.6016 19.7344 43.1953 20.6719C43.7891 21.6094 44.2344 22.6094 44.5312 23.6719C44.8281 24.7344 44.9844 25.8438 45 27H42C42 25.7656 41.7656 24.6016 41.2969 23.5078C40.8281 22.4141 40.1797 21.4609 39.3516 20.6484C38.5234 19.8359 37.5703 19.1953 36.4922 18.7266C35.4141 18.2578 34.25 18.0156 33 18C31.7656 18 30.6016 18.2344 29.5078 18.7031C28.4141 19.1719 27.4609 19.8203 26.6484 20.6484C25.8359 21.4766 25.1953 22.4297 24.7266 23.5078C24.2578 24.5859 24.0156 25.75 24 27C24 28.4219 23.6797 29.7734 23.0391 31.0547C22.3984 32.3359 21.5 33.3984 20.3438 34.2422C21.3594 34.7578 22.2734 35.3906 23.0859 36.1406C23.8984 36.8906 24.6016 37.7344 25.1953 38.6719C25.7891 39.6094 26.2344 40.6094 26.5312 41.6719C26.8281 42.7344 26.9844 43.8438 27 45H24C24 43.7656 23.7656 42.6016 23.2969 41.5078C22.8281 40.4141 22.1797 39.4609 21.3516 38.6484C20.5234 37.8359 19.5703 37.1953 18.4922 36.7266C17.4141 36.2578 16.25 36.0156 15 36C13.7656 36 12.6016 36.2344 11.5078 36.7031C10.4141 37.1719 9.46094 37.8203 8.64844 38.6484C7.83594 39.4766 7.19531 40.4297 6.72656 41.5078C6.25781 42.5859 6.01562 43.75 6 45H3C3 43.8594 3.15625 42.7578 3.46875 41.6953C3.78125 40.6328 4.22656 39.6328 4.80469 38.6953C5.38281 37.7578 6.07812 36.9141 6.89062 36.1641C7.70312 35.4141 8.625 34.7734 9.65625 34.2422C8.51562 33.3984 7.625 32.3359 6.98438 31.0547C6.34375 29.7734 6.01562 28.4219 6 27C6 25.7656 6.23438 24.6016 6.70312 23.5078C7.17188 22.4141 7.82031 21.4609 8.64844 20.6484C9.47656 19.8359 10.4297 19.1953 11.5078 18.7266C12.5859 18.2578 13.75 18.0156 15 18C16.4219 18 17.7734 18.3203 19.0547 18.9609C20.3359 19.6016 21.3984 20.5 22.2422 21.6562C22.8359 20.4844 23.5938 19.4375 24.5156 18.5156C25.4375 17.5938 26.4844 16.8359 27.6562 16.2422C26.5156 15.3984 25.625 14.3359 24.9844 13.0547C24.3438 11.7734 24.0156 10.4219 24 9C24 7.76562 24.2344 6.60156 24.7031 5.50781C25.1719 4.41406 25.8203 3.46094 26.6484 2.64844C27.4766 1.83594 28.4297 1.19531 29.5078 0.726562C30.5859 0.257812 31.75 0.015625 33 0C34.2344 0 35.3984 0.234375 36.4922 0.703125C37.5859 1.17188 38.5391 1.82031 39.3516 2.64844C40.1641 3.47656 40.8047 4.42969 41.2734 5.50781C41.7422 6.58594 41.9844 7.75 42 9C42 10.4219 41.6797 11.7734 41.0391 13.0547C40.3984 14.3359 39.5 15.3984 38.3438 16.2422ZM15 33C15.8125 33 16.5859 32.8438 17.3203 32.5312C18.0547 32.2188 18.6875 31.7891 19.2188 31.2422C19.75 30.6953 20.1797 30.0625 20.5078 29.3438C20.8359 28.625 21 27.8438 21 27C21 26.1875 20.8438 25.4141 20.5312 24.6797C20.2188 23.9453 19.7891 23.3125 19.2422 22.7812C18.6953 22.25 18.0547 21.8203 17.3203 21.4922C16.5859 21.1641 15.8125 21 15 21C14.1719 21 13.3984 21.1562 12.6797 21.4688C11.9609 21.7812 11.3281 22.2109 10.7812 22.7578C10.2344 23.3047 9.80469 23.9453 9.49219 24.6797C9.17969 25.4141 9.01562 26.1875 9 27C9 27.8281 9.15625 28.6016 9.46875 29.3203C9.78125 30.0391 10.2109 30.6719 10.7578 31.2188C11.3047 31.7656 11.9375 32.1953 12.6562 32.5078C13.375 32.8203 14.1562 32.9844 15 33ZM27 9C27 9.82812 27.1562 10.6016 27.4688 11.3203C27.7812 12.0391 28.2109 12.6719 28.7578 13.2188C29.3047 13.7656 29.9375 14.1953 30.6562 14.5078C31.375 14.8203 32.1562 14.9844 33 15C33.8125 15 34.5859 14.8438 35.3203 14.5312C36.0547 14.2188 36.6875 13.7891 37.2188 13.2422C37.75 12.6953 38.1797 12.0625 38.5078 11.3438C38.8359 10.625 39 9.84375 39 9C39 8.1875 38.8438 7.41406 38.5312 6.67969C38.2188 5.94531 37.7891 5.3125 37.2422 4.78125C36.6953 4.25 36.0547 3.82031 35.3203 3.49219C34.5859 3.16406 33.8125 3 33 3C32.1719 3 31.3984 3.15625 30.6797 3.46875C29.9609 3.78125 29.3281 4.21094 28.7812 4.75781C28.2344 5.30469 27.8047 5.94531 27.4922 6.67969C27.1797 7.41406 27.0156 8.1875 27 9Z" fill="#F8F8F8"/>
</svg>
