<svg width="18" height="16" viewBox="0 0 18 16" fill="none" xmlns="http://www.w3.org/2000/svg">
<path d="M16.3125 5.625C16.541 5.625 16.7578 5.66895 16.9629 5.75684C17.168 5.84473 17.3467 5.96484 17.499 6.11719C17.6514 6.26953 17.7744 6.44824 17.8682 6.65332C17.9619 6.8584 18.0059 7.07812 18 7.3125C18 7.5 17.9707 7.67871 17.9121 7.84863L15.6621 14.5986C15.6035 14.7686 15.5215 14.9238 15.416 15.0645C15.3105 15.2051 15.1875 15.3281 15.0469 15.4336C14.9062 15.5391 14.7539 15.6152 14.5898 15.6621C14.4258 15.709 14.25 15.7383 14.0625 15.75H9.5625C8.51367 15.75 7.50293 15.5479 6.53027 15.1436C6.1084 14.9736 5.68652 14.8447 5.26465 14.7568C4.84277 14.6689 4.40039 14.625 3.9375 14.625H0V6.75H3.66504C4.0459 6.75 4.40332 6.67969 4.7373 6.53906C5.07129 6.39844 5.37598 6.19336 5.65137 5.92383L11.1182 0.46582C11.2646 0.319336 11.4111 0.205078 11.5576 0.123047C11.7041 0.0410156 11.8828 0 12.0938 0C12.2871 0 12.4688 0.0351562 12.6387 0.105469C12.8086 0.175781 12.958 0.27832 13.0869 0.413086C13.2158 0.547852 13.3154 0.697266 13.3857 0.861328C13.4561 1.02539 13.4941 1.20703 13.5 1.40625C13.5 1.88086 13.4473 2.33203 13.3418 2.75977C13.2363 3.1875 13.0811 3.61523 12.876 4.04297C12.7588 4.29492 12.6592 4.5498 12.5771 4.80762C12.4951 5.06543 12.4395 5.33789 12.4102 5.625H16.3125ZM14.0625 14.625C14.1797 14.625 14.2881 14.5898 14.3877 14.5195C14.4873 14.4492 14.5576 14.3555 14.5986 14.2383C14.6279 14.1562 14.6807 13.998 14.7568 13.7637C14.833 13.5293 14.9297 13.248 15.0469 12.9199C15.1641 12.5918 15.2871 12.2285 15.416 11.8301C15.5449 11.4316 15.6797 11.0303 15.8203 10.626C15.9609 10.2217 16.0898 9.8291 16.207 9.44824C16.3242 9.06738 16.4385 8.72168 16.5498 8.41113C16.6611 8.10059 16.7402 7.84863 16.7871 7.65527C16.834 7.46191 16.8633 7.34766 16.875 7.3125C16.875 7.16016 16.8193 7.02832 16.708 6.91699C16.5967 6.80566 16.4648 6.75 16.3125 6.75H11.25C11.25 6.43945 11.2559 6.15234 11.2676 5.88867C11.2793 5.625 11.3086 5.36426 11.3555 5.10645C11.4023 4.84863 11.4668 4.59668 11.5488 4.35059C11.6309 4.10449 11.7393 3.83789 11.874 3.55078C12.0381 3.21094 12.1611 2.86523 12.2432 2.51367C12.3252 2.16211 12.3691 1.79297 12.375 1.40625C12.375 1.32422 12.3486 1.25684 12.2959 1.2041C12.2432 1.15137 12.1758 1.125 12.0938 1.125C12.0586 1.125 12.0293 1.13672 12.0059 1.16016C11.9824 1.18359 11.9561 1.20996 11.9268 1.23926L6.45117 6.72363C6.26367 6.91113 6.06445 7.0752 5.85352 7.21582C5.64258 7.35645 5.41406 7.47656 5.16797 7.57617C4.69922 7.77539 4.19824 7.875 3.66504 7.875H1.125V13.5H3.9375C4.98047 13.5 5.99121 13.7021 6.96973 14.1064C7.81348 14.4521 8.67773 14.625 9.5625 14.625H14.0625Z" fill="#5C5C5C"/>
</svg>

