<svg width="37" height="40" viewBox="0 0 37 40" fill="none" xmlns="http://www.w3.org/2000/svg">
<g clip-path="url(#clip0)">
<path d="M18.4615 40C21 40 23.0769 38.1538 23.0769 35.8974H13.8462C13.8462 38.1538 15.9231 40 18.4615 40ZM32.3077 27.6923V17.4359C32.3077 11.1385 28.5462 5.86667 21.9231 4.47179V3.07692C21.9231 1.37436 20.3769 0 18.4615 0C16.5462 0 15 1.37436 15 3.07692V4.47179C8.4 5.86667 4.61538 11.1179 4.61538 17.4359V27.6923L0 31.7949V33.8462H36.9231V31.7949L32.3077 27.6923ZM27.6923 29.7436H9.23077V17.4359C9.23077 12.3487 12.7154 8.20513 18.4615 8.20513C24.2077 8.20513 27.6923 12.3487 27.6923 17.4359V29.7436Z" fill="#F8F8F8"/>
</g>
<defs>
<clipPath id="clip0">
<rect width="36.9231" height="40" fill="white"/>
</clipPath>
</defs>
</svg>
