<svg width="53" height="53" viewBox="0 0 53 53" fill="none" xmlns="http://www.w3.org/2000/svg">
<circle cx="26.5" cy="26.5" r="26.5" fill="black" fill-opacity="0.5"/>
<path d="M42 16.0708C42 16.7368 41.8739 17.3826 41.6216 18.0083C41.3693 18.634 41.001 19.189 40.5166 19.6733L20.5815 39.6084L11 42L13.3916 32.4185L33.3267 12.4834C33.811 11.999 34.366 11.6307 34.9917 11.3784C35.6173 11.1261 36.2632 11 36.9292 11C37.6255 11 38.2814 11.1312 38.897 11.3936C39.5125 11.6559 40.0474 12.0192 40.5015 12.4834C40.9556 12.9476 41.3188 13.4875 41.5913 14.103C41.8638 14.7186 42 15.3745 42 16.0708ZM15.9346 32.6152C17.0042 32.9684 17.9225 33.5285 18.6895 34.2954C19.4564 35.0623 20.0215 35.9857 20.3848 37.0654L36.7476 20.6875L32.3125 16.2524L15.9346 32.6152ZM13.6641 39.3359L18.644 38.0947C18.5431 37.6305 18.3817 37.1916 18.1597 36.7778C17.9377 36.3641 17.6602 35.9958 17.3271 35.6729C16.9941 35.3499 16.6258 35.0775 16.2222 34.8555C15.8185 34.6335 15.3796 34.467 14.9053 34.356L13.6641 39.3359ZM38.125 19.3101C38.3773 19.0578 38.6195 18.8206 38.8516 18.5986C39.0837 18.3766 39.2905 18.1445 39.4722 17.9023C39.6538 17.6602 39.7951 17.3927 39.896 17.1001C39.9969 16.8075 40.0524 16.4694 40.0625 16.0859C40.0625 15.652 39.9818 15.2484 39.8203 14.875C39.6589 14.5016 39.4318 14.1686 39.1392 13.876C38.8465 13.5833 38.5135 13.3563 38.1401 13.1948C37.7668 13.0334 37.3581 12.9476 36.9141 12.9375C36.5306 12.9375 36.1976 12.988 35.915 13.0889C35.6325 13.1898 35.3651 13.3361 35.1128 13.5278C34.8605 13.7196 34.6234 13.9264 34.4014 14.1484C34.1794 14.3704 33.9422 14.6126 33.6899 14.875L38.125 19.3101Z" fill="white"/>
<path d="M42 16.0708C42 16.7368 41.8739 17.3826 41.6216 18.0083C41.3693 18.634 41.001 19.189 40.5166 19.6733L20.5815 39.6084L11 42L13.3916 32.4185L33.3267 12.4834C33.811 11.999 34.366 11.6307 34.9917 11.3784C35.6173 11.1261 36.2632 11 36.9292 11C37.6255 11 38.2814 11.1312 38.897 11.3936C39.5125 11.6559 40.0474 12.0192 40.5015 12.4834C40.9556 12.9476 41.3188 13.4875 41.5913 14.103C41.8638 14.7186 42 15.3745 42 16.0708ZM15.9346 32.6152C17.0042 32.9684 17.9225 33.5285 18.6895 34.2954C19.4564 35.0623 20.0215 35.9857 20.3848 37.0654L36.7476 20.6875L32.3125 16.2524L15.9346 32.6152ZM13.6641 39.3359L18.644 38.0947C18.5431 37.6305 18.3817 37.1916 18.1597 36.7778C17.9377 36.3641 17.6602 35.9958 17.3271 35.6729C16.9941 35.3499 16.6258 35.0775 16.2222 34.8555C15.8185 34.6335 15.3796 34.467 14.9053 34.356L13.6641 39.3359ZM38.125 19.3101C38.3773 19.0578 38.6195 18.8206 38.8516 18.5986C39.0837 18.3766 39.2905 18.1445 39.4722 17.9023C39.6538 17.6602 39.7951 17.3927 39.896 17.1001C39.9969 16.8075 40.0524 16.4694 40.0625 16.0859C40.0625 15.652 39.9818 15.2484 39.8203 14.875C39.6589 14.5016 39.4318 14.1686 39.1392 13.876C38.8465 13.5833 38.5135 13.3563 38.1401 13.1948C37.7668 13.0334 37.3581 12.9476 36.9141 12.9375C36.5306 12.9375 36.1976 12.988 35.915 13.0889C35.6325 13.1898 35.3651 13.3361 35.1128 13.5278C34.8605 13.7196 34.6234 13.9264 34.4014 14.1484C34.1794 14.3704 33.9422 14.6126 33.6899 14.875L38.125 19.3101Z" stroke="black"/>
</svg>
