<svg width="20" height="18" viewBox="0 0 20 18" fill="none" xmlns="http://www.w3.org/2000/svg">
<path d="M13.75 15L15 13.75V17.5H0V5H1.25V16.25H13.75V15ZM12.5 10C11.6667 10 10.8529 10.0814 10.0586 10.2441C9.26432 10.4069 8.49284 10.651 7.74414 10.9766C6.99544 11.3021 6.28906 11.696 5.625 12.1582C4.96094 12.6204 4.33594 13.151 3.75 13.75V12.5C3.75 11.6927 3.85417 10.918 4.0625 10.1758C4.27083 9.43359 4.5638 8.73698 4.94141 8.08594C5.31901 7.4349 5.77474 6.8457 6.30859 6.31836C6.84245 5.79102 7.43164 5.33529 8.07617 4.95117C8.7207 4.56706 9.41732 4.27083 10.166 4.0625C10.9147 3.85417 11.6927 3.75 12.5 3.75V0L19.375 6.875L12.5 13.75V10ZM13.4863 5C13.1217 5 12.7799 5.00326 12.4609 5.00977C12.1419 5.01628 11.8262 5.03581 11.5137 5.06836C11.2012 5.10091 10.8887 5.15951 10.5762 5.24414C10.2637 5.32878 9.93164 5.44271 9.58008 5.58594C9.01367 5.82031 8.48958 6.11979 8.00781 6.48438C7.52604 6.84896 7.0931 7.26237 6.70898 7.72461C6.32487 8.18685 6.0026 8.69141 5.74219 9.23828C5.48177 9.78516 5.28646 10.3581 5.15625 10.957C6.25 10.2279 7.41862 9.67773 8.66211 9.30664C9.9056 8.93555 11.1849 8.75 12.5 8.75H13.75V10.7324L17.6074 6.875L13.75 3.01758V5H13.4863Z" fill="#5C5C5C"/>
</svg>
