<svg width="45" height="45" viewBox="0 0 45 45" fill="none" xmlns="http://www.w3.org/2000/svg">
<path d="M25.3125 14.0625H11.25V11.25H25.3125V14.0625ZM5.625 36.5625H20.5884L19.1821 39.375H2.8125V2.8125H33.75V16.875H30.9375V5.625H5.625V36.5625ZM11.25 28.125H24.8071L23.4009 30.9375H11.25V28.125ZM22.5 19.6875V22.5H11.25V19.6875H22.5ZM43.1323 40.9351C43.3374 41.3452 43.4399 41.7627 43.4399 42.1875C43.4399 42.5684 43.3667 42.9272 43.2202 43.2642C43.0737 43.6011 42.876 43.9014 42.627 44.165C42.3779 44.4287 42.0776 44.6338 41.7261 44.7803C41.3745 44.9268 41.0083 45 40.6274 45H24.0601C23.6792 45 23.3203 44.9268 22.9834 44.7803C22.6465 44.6338 22.3462 44.436 22.0825 44.187C21.8188 43.938 21.6138 43.6377 21.4673 43.2861C21.3208 42.9346 21.2476 42.5684 21.2476 42.1875C21.2476 41.7627 21.3501 41.3452 21.5552 40.9351L28.125 27.7954V22.5H25.3125V19.6875H39.375V22.5H36.5625V27.7954L43.1323 40.9351ZM37.8149 36.5625L33.75 28.4546V22.5H30.9375V28.4546L26.8726 36.5625H37.8149Z" fill="#F8F8F8"/>
</svg>
